{"title":"Kagi no Kakatta Heya SP (2014) 480p x264 AAC (Hardsubbed) BANKAI","uid":9472494,"size":523001210,"categoryP":"video","categoryS":"tv_shows","magnet":"?xt=urn:btih:63176bc2775a5173bb488ad32122e99772ee2df3&amp;dn=Kagi+no+Kakatta+Heya+SP+%282014%29+480p+x264+AAC+%28Hardsubbed%29+BANKAI&amp;tr=udp%3A%2F%2Ftracker.openbittorrent.com%3A80&amp;tr=udp%3A%2F%2Fopen.demonii.com%3A1337&amp;tr=udp%3A%2F%2Ftracker.coppersurfer.tk%3A6969&amp;tr=udp%3A%2F%2Fexodus.desync.com%3A6969","seeders":1,"leechers":1,"uploader":"8ankai","files":-1,"time":1389612521,"description":"Kagi no Kakatta Heya SP (2014)\n &lt;a href=&quot;\nhttp://i.imgur.com/BB4Rric.jpg&quot; rel=&quot;nofollow&quot; target=&quot;_NEW&quot;&gt;\nhttp://i.imgur.com/BB4Rric.jpg&lt;/a&gt;\n\nINFO:\nTitle (romaji) : Kagi no Kakatta Heya (SP)\nGenre : Locked room mystery\nFormat : Tanpatsu\nBroadcast date : 2014-Jan-03\nScreenwriter : Aizawa Tomoko\nProducer : Obara Ichiryu\nDirector : Matsuyama Hiroaki\nMusic : Ken Arai\nTheme song : Face Down by Arashi\nEncoder : BANKAI  \nSubtitle : ENGLISH HARDSUBBED\n\nSubs by EarthBuri Team\nTranslations : danburi &amp; earthcolors\nEditing, Retiming, and Styling : earthcolors\nSpot Translator and QC : danburi\n\nSpecial thanks for the raw : ( -o _ o- )/\n\n\nCAST:\nOhno Satoshi as Enomoto Kei\nToda Erika as Aoto Junko\nSato Koichi as Serizawa Gou\nUkaji Takashi as Kouno Mitsuo\nKuroki Hitomi\nSano Shiro\nFujiki Naohito\nOkada Yoshinori\nMatsui Jurina\n\n\nSYNOPSIS:\nKagi no Kakatta Heya SP (Fuji TV Drama Special, Winter 2014) brings back the trio of Enomoto, Aoto, and Serizawa, based on two stories by original author Kishi Yusuke. Half a year has gone by after Enomoto Kei (Ohno Satoshi) disappeared. Lawyers Serizawa Gou (Sato Koichi) and Aoto Junko (Toda Erika) are back to doing their normal work. Then, one day, a chairman of a securities firm was found bludgeoned to death inside his locked house. It was Serizawa who discovered the body along with the victim's niece, Ikuko (Kuroki Hitomi). Detective Konno (Ukaji Takashi) asks about the connection between the victim and Serizawa. The lawyer reveals he was mediating the donation of a billion yen worth of art collection, used to belong to the victim's late wife, to an art museum. Later on, Serizawa is asked by Ikuko to put a stop to the donation. She claims that on the day before her uncle was killed, he told her he intended to cancel the donation. However, Serizawa finds her story suspicious, considering Ikuko is the sole heir of the victim... Around the same time, too, there is a suspicious hooded man following Serizawa around, and making threatening phone calls... --by earthcolors (http://earth-colors.dreamwidth.org)\n\n\nVIDEO INFO:\nFormat : MPEG-4 \nFormat profile : Base Media \nCodec ID : isom \nFile size : 499 MiB \nDuration : 1h 59mn \nOverall bit rate mode : Variable \nOverall bit rate : 583 Kbps \n\nVideo \nFormat : AVC \nFormat/Info : Advanced Video Codec \nFormat profile : &lt;a class=&quot;__cf_email__&quot; href=&quot;/cdn-cgi/l/email-protection&quot; data-cfemail=&quot;2068494748606c130e11&quot;&gt;[email&amp;#160;protected]&lt;/a&gt;&lt;script cf-hash='f9e31' type=&quot;text/javascript&quot;&gt;\n/* &lt;![CDATA[ */!function(){try{var t=&quot;currentScript&quot;in document?document.currentScript:function(){for(var t=document.getElementsByTagName(&quot;script&quot;),e=t.length;e--;)if(t[e].getAttribute(&quot;cf-hash&quot;))return t[e]}();if(t&amp;&amp;t.previousSibling){var e,r,n,i,c=t.previousSibling,a=c.getAttribute(&quot;data-cfemail&quot;);if(a){for(e=&quot;&quot;,r=parseInt(a.substr(0,2),16),n=2;a.length-n;n+=2)i=parseInt(a.substr(n,2),16)^r,e+=String.fromCharCode(i);e=document.createTextNode(e),c.parentNode.replaceChild(e,c)}}}catch(u){}}();/* ]]&gt; */&lt;/script&gt; \nFormat settings, CABAC : Yes \nFormat settings, ReFrames : 4 frames \nCodec ID : avc1 \nCodec ID/Info : Advanced Video Coding \nDuration : 1h 59mn \nBit rate : 387 Kbps \nMaximum bit rate : 2 274 Kbps \nWidth : 848 pixels \nHeight : 480 pixels \nDisplay aspect ratio : 16:9 \nFrame rate mode : Constant \nFrame rate : 29.970 fps \nColor space : YUV \nChroma subsampling : 4:2:0 \nBit depth : 8 bits \nScan type : Progressive \nBits/(Pixel*Frame) : 0.032 \nStream size : 331 MiB (66%) \n\nAudio \nFormat : AAC \nFormat/Info : Advanced Audio Codec \nFormat profile : LC \nCodec ID : 40 \nDuration : 1h 59mn \nBit rate mode : Variable \nBit rate : 192 Kbps \nMaximum bit rate : 225 Kbps \nChannel(s) : 2 channels \nChannel positions : Front: L R \nSampling rate : 48.0 KHz \nCompression mode : Lossy \nStream size : 164 MiB (33%) \n\n\nSCREENSHOT: &lt;a href=&quot;\nhttp://i.imgur.com/ev12Lmh.jpg&quot; rel=&quot;nofollow&quot; target=&quot;_NEW&quot;&gt;\nhttp://i.imgur.com/ev12Lmh.jpg&lt;/a&gt;\n\nEnjoy &amp; Please Seed!!","torrent":{"xt":"urn:btih:63176bc2775a5173bb488ad32122e99772ee2df3","amp;dn":"Kagi+no+Kakatta+Heya+SP+%282014%29+480p+x264+AAC+%28Hardsubbed%29+BANKAI","amp;tr":["udp%3A%2F%2Ftracker.openbittorrent.com%3A80","udp%3A%2F%2Fopen.demonii.com%3A1337","udp%3A%2F%2Ftracker.coppersurfer.tk%3A6969","udp%3A%2F%2Fexodus.desync.com%3A6969"],"infoHash":"63176bc2775a5173bb488ad32122e99772ee2df3","infoHashBuffer":{"type":"Buffer","data":[99,23,107,194,119,90,81,115,187,72,138,211,33,34,233,151,114,238,45,243]},"announce":[],"urlList":[]}}